<svg xmlns="http://www.w3.org/2000/svg" width="71" height="71" viewBox="0 0 71 71" fill="none"><g clip-path="url(#clip0_1431_16887)"><path d="M36.7292 0.37258C36.365 0.13026 35.9374 0.000976563 35.5 0.000976562C35.0626 0.000976563 34.635 0.13026 34.2708 0.37258L0.989563 22.5601C0.593502 22.8242 0.29288 23.2086 0.132101 23.6567C-0.0286786 24.1048 -0.0410892 24.5927 0.0967019 25.0483C0.234493 25.504 0.515179 25.9032 0.897301 26.1871C1.27942 26.471 1.74272 26.6245 2.21875 26.6248H10.5391V57.6873H6.65625C6.0678 57.6873 5.50345 57.9211 5.08736 58.3372C4.67126 58.7533 4.4375 59.3176 4.4375 59.9061C4.4375 60.4945 4.67126 61.0589 5.08736 61.475C5.50345 61.8911 6.0678 62.1248 6.65625 62.1248H64.3438C64.9322 62.1248 65.4966 61.8911 65.9126 61.475C66.3287 61.0589 66.5625 60.4945 66.5625 59.9061C66.5625 59.3176 66.3287 58.7533 65.9126 58.3372C65.4966 57.9211 64.9322 57.6873 64.3438 57.6873H60.4609V26.6248H68.7812C69.2573 26.6245 69.7206 26.471 70.1027 26.1871C70.4848 25.9032 70.7655 25.504 70.9033 25.0483C71.0411 24.5927 71.0287 24.1048 70.8679 23.6567C70.7071 23.2086 70.4065 22.8242 70.0104 22.5601L36.7292 0.37258ZM54.9141 26.6248V57.6873H49.3672V26.6248H54.9141ZM43.8203 26.6248V57.6873H38.2734V26.6248H43.8203ZM32.7266 26.6248V57.6873H27.1797V26.6248H32.7266ZM21.6328 26.6248V57.6873H16.0859V26.6248H21.6328ZM35.5 17.7498C34.3231 17.7498 33.1944 17.2823 32.3622 16.4501C31.53 15.6179 31.0625 14.4892 31.0625 13.3123C31.0625 12.1354 31.53 11.0067 32.3622 10.1745C33.1944 9.34235 34.3231 8.87483 35.5 8.87483C36.6769 8.87483 37.8056 9.34235 38.6378 10.1745C39.47 11.0067 39.9375 12.1354 39.9375 13.3123C39.9375 14.4892 39.47 15.6179 38.6378 16.4501C37.8056 17.2823 36.6769 17.7498 35.5 17.7498ZM2.21875 66.5623C1.6303 66.5623 1.06595 66.7961 0.649857 67.2122C0.233761 67.6283 0 68.1926 0 68.7811C0 69.3695 0.233761 69.9339 0.649857 70.35C1.06595 70.7661 1.6303 70.9998 2.21875 70.9998H68.7812C69.3697 70.9998 69.9341 70.7661 70.3501 70.35C70.7662 69.9339 71 69.3695 71 68.7811C71 68.1926 70.7662 67.6283 70.3501 67.2122C69.9341 66.7961 69.3697 66.5623 68.7812 66.5623H2.21875Z" fill="#FFAE3E"></path></g><defs><clipPath id="clip0_1431_16887"><rect width="71" height="71" fill="white"></rect></clipPath></defs></svg>