<svg xmlns="http://www.w3.org/2000/svg" width="170" height="170" viewBox="0 0 170 170" fill="none"><path d="M121.992 10.0127L117.504 8.05615L116.008 11.5088L120.151 13.3502L119.576 14.5011L115.432 12.6597L113.476 17.1482L112.21 16.5727L116.813 6.21472L122.568 8.74668L121.992 10.0127Z" fill="white"></path><path d="M130.624 27.2787L131.315 24.4012L126.941 21.2935L124.41 22.9049L123.144 21.9841L133.386 15.4235L134.422 16.2292L131.775 28.1995L130.624 27.2787ZM132.926 17.3801L128.092 20.4878L131.66 23.02L132.926 17.3801Z" fill="white"></path><path d="M140.408 36.9461C139.257 35.68 138.797 34.2989 138.912 32.6875C139.027 31.1912 139.717 29.81 140.983 28.659C142.249 27.508 143.63 27.0476 145.241 27.1627C146.738 27.2778 148.119 27.9684 149.154 29.2345C149.73 29.9251 150.075 30.6157 150.305 31.3063C150.536 32.112 150.651 32.8026 150.536 33.6083C150.42 34.414 150.075 35.1045 149.615 35.7951L148.694 34.7592C149.154 33.9536 149.27 33.1479 149.154 32.3422C149.039 31.5365 148.694 30.7308 148.119 30.0402C147.313 29.1194 146.277 28.5439 145.126 28.5439C143.976 28.4288 142.94 28.8892 141.904 29.6949C140.868 30.5006 140.408 31.5365 140.293 32.6875C140.178 33.8385 140.523 34.8744 141.444 35.7951C142.019 36.4857 142.825 36.9461 143.63 37.1763C144.436 37.4065 145.241 37.2914 146.162 36.9461L147.083 37.982C145.932 38.5575 144.666 38.7877 143.515 38.5575C142.249 38.5575 141.213 37.982 140.408 36.9461Z" fill="white"></path><path d="M150.19 48.2264L152.607 52.7149L151.456 53.4054L148.349 47.6509L158.246 42.2418L161.238 47.8811L160.088 48.5717L157.671 44.1983L154.563 45.8095L156.75 49.8376L155.599 50.4131L153.412 46.385L150.19 48.2264Z" fill="white"></path><path d="M161.929 65.3751C161.814 65.9505 161.584 66.4109 161.239 66.8712C160.893 67.3316 160.318 67.5618 159.742 67.7919C158.937 68.0221 158.131 67.907 157.326 67.4467C156.52 66.9863 156.06 66.2958 155.829 65.3751L154.563 61.0017L165.382 57.8943L166.648 62.1526C166.878 63.0733 166.878 63.8789 166.533 64.5694C166.187 65.26 165.612 65.7203 164.806 65.9505C164.346 66.0656 163.77 66.0656 163.31 65.9505C162.735 65.8354 162.274 65.7203 161.929 65.3751ZM157.095 64.9147C157.21 65.4902 157.556 65.8354 158.016 66.0656C158.476 66.2958 158.937 66.4109 159.512 66.1807C159.973 66.0656 160.433 65.7203 160.663 65.26C160.893 64.7996 160.893 64.3393 160.778 63.7638L159.858 60.7715L156.29 61.8073L157.095 64.9147ZM164.116 64.6845C164.461 64.5694 164.691 64.4544 164.921 64.2242C165.152 63.994 165.267 63.7638 165.267 63.4186C165.382 63.0733 165.267 62.8431 165.267 62.4978L164.461 59.6206L161.239 60.5413L162.044 63.4186C162.159 63.8789 162.505 64.2242 162.85 64.4544C163.31 64.6845 163.655 64.7996 164.116 64.6845Z" fill="white"></path><path d="M160.088 85.9792C158.937 84.9433 158.362 83.5621 158.247 81.8356C158.132 80.1091 158.707 78.7279 159.743 77.5769C160.779 76.4259 162.16 75.8504 163.886 75.7353C165.613 75.6202 166.994 76.1957 168.144 77.2316C169.295 78.2675 169.871 79.6487 169.986 81.3752C170.101 83.1017 169.526 84.4829 168.49 85.6339C167.454 86.7848 166.073 87.3603 164.347 87.4754C162.62 87.5905 161.239 87.1301 160.088 85.9792ZM160.779 78.6128C159.973 79.5336 159.628 80.5695 159.628 81.8356C159.628 83.1017 160.203 84.1376 161.009 84.9433C161.93 85.749 162.966 86.0943 164.231 86.0943C165.497 86.0943 166.533 85.5188 167.339 84.7131C168.144 83.7923 168.49 82.7564 168.49 81.4903C168.49 80.2242 167.914 79.1883 167.109 78.3826C166.188 77.5769 165.152 77.2316 163.886 77.2316C162.62 77.2316 161.584 77.692 160.779 78.6128Z" fill="white"></path><path d="M157.324 105.315C156.519 103.934 156.289 102.438 156.634 100.827C156.979 99.2151 157.785 97.949 159.166 97.0283C160.432 96.2226 161.928 95.8773 163.539 96.2226C165.15 96.5679 166.416 97.3736 167.222 98.7547C168.028 100.136 168.258 101.632 167.912 103.244C167.567 104.855 166.762 106.121 165.381 107.042C164.115 107.848 162.618 108.193 160.892 107.732C159.396 107.387 158.13 106.581 157.324 105.315ZM159.856 98.2943C158.821 98.9849 158.245 99.9057 157.9 101.172C157.67 102.438 157.785 103.589 158.475 104.51C159.166 105.43 160.087 106.121 161.352 106.466C162.618 106.812 163.769 106.581 164.69 105.891C165.726 105.2 166.301 104.279 166.647 103.013C166.877 101.747 166.762 100.596 166.071 99.6755C165.381 98.7547 164.46 98.0641 163.194 97.7188C162.043 97.3736 160.892 97.6038 159.856 98.2943Z" fill="white"></path><path d="M149.614 120.394L156.059 119.128L156.75 117.747L152.146 115.445L152.722 114.179L162.849 119.128L162.274 120.394L158.016 118.322L157.325 119.704L160.087 124.998L159.282 126.61L156.174 120.509L148.924 122.006L149.614 120.394Z" fill="white"></path><path d="M131.431 154.579L135.344 151.701L133.157 148.709L129.475 151.356L128.669 150.32L132.352 147.673L129.475 143.759L130.625 142.954L137.301 152.046L132.237 155.845L131.431 154.579Z" fill="white"></path><path d="M112.211 153.542L114.398 155.498L119.347 153.196L119.232 150.319L120.613 149.743L121.188 161.944L120.037 162.519L110.945 154.232L112.211 153.542ZM119.692 160.448L119.462 154.693L115.549 156.534L119.692 160.448Z" fill="white"></path><path d="M98.9756 157.225C100.587 156.88 102.083 157.11 103.349 158.031C104.615 158.837 105.42 160.103 105.766 161.829C106.111 163.556 105.881 164.937 104.96 166.203C104.039 167.469 102.889 168.275 101.162 168.62C100.357 168.735 99.551 168.735 98.7454 168.62C97.9398 168.505 97.2493 168.16 96.6738 167.584C96.0984 167.009 95.5229 166.433 95.1777 165.743L96.5587 165.513C97.0191 166.203 97.5945 166.779 98.4001 167.124C99.2057 167.469 100.011 167.469 100.932 167.354C102.198 167.124 103.119 166.548 103.694 165.513C104.27 164.477 104.5 163.441 104.27 162.175C104.039 160.909 103.464 159.988 102.428 159.297C101.508 158.607 100.357 158.492 99.0907 158.722C98.17 158.952 97.3643 159.297 96.7889 159.873C96.2135 160.448 95.8682 161.254 95.7531 162.175L94.3721 162.405C94.4872 161.139 94.8324 159.988 95.638 159.067C96.5587 158.031 97.7096 157.456 98.9756 157.225Z" fill="white"></path><path d="M84.3585 160.102L79.1795 159.987V158.606L85.7395 158.721L85.3943 170L79.0645 169.885V168.504L84.0132 168.619L84.1283 165.166L79.5248 165.051V163.785L84.1283 163.9L84.3585 160.102Z" fill="white"></path><path d="M63.6437 161.714C63.1833 161.369 62.8381 160.909 62.723 160.333C62.6079 159.758 62.4928 159.182 62.723 158.607C62.9532 157.801 63.4135 157.11 64.2191 156.65C65.0247 156.19 65.8304 156.074 66.7511 156.305L71.0093 157.571L68.3623 168.505L63.989 167.469C63.0683 167.239 62.3777 166.779 61.9174 166.088C61.457 165.397 61.3419 164.707 61.5721 163.901C61.6872 163.441 61.9174 162.98 62.2626 162.52C62.723 162.175 63.1833 161.944 63.6437 161.714ZM63.1833 164.016C63.0683 164.362 63.0683 164.592 63.1833 164.937C63.2984 165.282 63.4135 165.513 63.6437 165.628C63.8739 165.858 64.104 165.973 64.4493 166.088L67.4416 166.779L68.2472 163.441L65.2549 162.75C64.7946 162.635 64.3342 162.75 63.8739 162.98C63.4135 163.211 63.2984 163.556 63.1833 164.016ZM66.4058 157.801C65.8304 157.686 65.37 157.686 64.9097 158.031C64.4493 158.261 64.2191 158.722 64.104 159.182C63.989 159.642 64.104 160.218 64.3342 160.563C64.5644 161.024 65.0247 161.254 65.6002 161.369L68.5925 162.06L69.5132 158.492L66.4058 157.801Z" fill="white"></path><path d="M46.61 149.858C48.1061 149.398 49.6022 149.513 51.0984 150.319C52.5945 151.124 53.6303 152.275 54.0907 153.772C54.551 155.268 54.4359 156.764 53.6303 158.261C52.8247 159.757 51.6738 160.678 50.1777 161.253C48.6815 161.714 47.1854 161.598 45.6893 160.793C44.1931 159.987 43.1573 158.836 42.697 157.34C42.2366 155.843 42.3517 154.347 43.1573 152.851C43.963 151.355 45.1138 150.319 46.61 149.858ZM52.7096 154.117C52.3643 152.966 51.5587 152.16 50.4079 151.47C49.257 150.894 48.1061 150.779 46.9552 151.124C45.8044 151.47 44.9987 152.275 44.4233 153.311C43.8479 154.347 43.7328 155.613 44.078 156.764C44.4233 157.915 45.2289 158.721 46.3798 159.412C47.5307 160.102 48.6815 160.102 49.8324 159.757C50.9833 159.412 51.7889 158.606 52.3643 157.57C52.9398 156.419 53.0549 155.268 52.7096 154.117Z" fill="white"></path><path d="M31.3032 137.889C32.9144 137.774 34.2954 138.349 35.5614 139.5C36.8274 140.651 37.5179 142.033 37.633 143.529C37.7481 145.14 37.1726 146.522 36.0218 147.788C34.8709 149.054 33.6049 149.629 31.9937 149.744C30.3825 149.859 29.0014 149.284 27.7354 148.133C26.4695 146.982 25.779 145.601 25.6639 144.104C25.5488 142.493 26.1242 141.112 27.2751 139.846C28.426 138.58 29.6919 138.004 31.3032 137.889ZM36.1368 143.644C36.1368 142.493 35.5614 141.457 34.6407 140.536C33.72 139.731 32.5691 139.27 31.4182 139.385C30.2674 139.5 29.2316 139.961 28.3109 140.882C27.5053 141.802 27.0449 142.953 27.16 144.104C27.2751 145.255 27.7354 146.291 28.6561 147.212C29.5768 148.018 30.7277 148.478 31.8786 148.363C33.0295 148.248 34.0653 147.788 34.986 146.867C35.7916 145.946 36.1368 144.795 36.1368 143.644Z" fill="white"></path><path d="M21.9811 123.732L19.9095 129.947L20.7151 131.213L24.9734 128.336L25.779 129.487L16.4569 135.817L15.6513 134.666L19.5642 132.019L18.7586 130.753L12.7741 130.408L11.7383 128.911L18.5284 129.257L20.8302 122.236L21.9811 123.732Z" fill="white"></path><path d="M1.38105 91.0433L1.95649 95.877L5.63929 95.4167L5.17894 90.9282L6.44491 90.8131L6.90526 95.3016L11.7389 94.7261L11.854 96.1072L0.690526 97.3732L0 91.0433H1.38105Z" fill="white"></path><path d="M11.7391 74.8144L8.97698 75.7351L8.51663 81.1443L11.1636 82.5253L10.9335 83.9064L0.115234 78.3821L0.230322 77.0011L11.8542 73.2031L11.7391 74.8144ZM2.18681 77.8067L7.36575 80.4537L7.71102 76.0804L2.18681 77.8067Z" fill="white"></path><path d="M15.1913 61.4623C14.6158 63.0737 13.6951 64.2247 12.3141 64.9153C10.933 65.6059 9.43688 65.721 7.82566 65.1455C6.21443 64.57 5.06356 63.6492 4.37303 62.268C3.6825 60.8868 3.56742 59.3906 4.14285 57.7792C4.37303 56.9735 4.83338 56.2829 5.40882 55.7074C5.98426 55.1319 6.55969 54.6715 7.36531 54.3262C8.05583 53.9809 8.86145 53.8658 9.66706 53.9809L9.20671 55.3621C8.28601 55.3621 7.59548 55.7074 6.90496 56.1678C6.21443 56.6282 5.75408 57.3188 5.52391 58.2396C5.17864 59.3906 5.17864 60.5415 5.75408 61.5774C6.32952 62.6133 7.13513 63.3039 8.4011 63.7643C9.66706 64.2247 10.8179 64.1096 11.8537 63.6492C12.8895 63.1888 13.58 62.268 14.0404 61.117C14.3857 60.1963 14.3857 59.3906 14.1555 58.5849C13.9253 57.7792 13.4649 57.0886 12.6593 56.5131L13.1197 55.1319C14.2706 55.8225 14.9611 56.7433 15.4214 57.8943C15.6516 59.0453 15.6516 60.1963 15.1913 61.4623Z" fill="white"></path><path d="M19.909 47.3044L22.556 42.9311L23.7069 43.6216L20.2543 49.261L10.5869 43.3914L13.9245 37.9822L15.0753 38.6728L12.4283 42.9311L15.4206 44.7725L17.8374 40.8595L18.9883 41.55L16.5715 45.463L19.909 47.3044Z" fill="white"></path><path d="M28.8879 28.544C29.4633 28.3138 29.9237 28.3138 30.4991 28.4289C31.0745 28.544 31.5349 28.7742 31.9952 29.2346C32.6858 29.8101 32.9159 30.6158 32.9159 31.4215C32.9159 32.2272 32.5707 33.148 31.8801 33.8386L28.7728 37.0614L20.6016 29.3497L23.7089 26.127C24.3995 25.4364 25.09 25.0911 25.8956 25.0911C26.7012 25.0911 27.3917 25.3213 27.9672 25.8968C28.3124 26.2421 28.6577 26.7025 28.7728 27.1628C28.8879 27.6232 29.003 28.0836 28.8879 28.544ZM27.0465 26.9326C26.8163 26.7025 26.5861 26.5874 26.2409 26.4723C25.8956 26.3572 25.6654 26.4723 25.3202 26.4723C24.9749 26.5874 24.7447 26.7025 24.5145 26.9326L22.443 29.1195L24.8598 31.4215L26.9314 29.2346C27.2766 28.8893 27.3917 28.4289 27.3917 27.9685C27.3917 27.5081 27.3917 27.2779 27.0465 26.9326ZM30.8444 32.8027C31.1896 32.3423 31.4198 31.8819 31.4198 31.4215C31.4198 30.9611 31.1896 30.5007 30.8444 30.0403C30.4991 29.695 30.0387 29.4648 29.4633 29.5799C29.003 29.5799 28.5426 29.8101 28.0823 30.2705L25.8956 32.5725L28.5426 35.1047L30.8444 32.8027Z" fill="white"></path><path d="M47.6464 19.6818C47.3011 21.1781 46.3804 22.4442 44.9993 23.365C43.6183 24.2858 42.1222 24.6311 40.5109 24.2858C39.0148 23.9405 37.7488 23.1348 36.8281 21.7536C35.9074 20.3724 35.6772 18.8761 36.0225 17.3798C36.3678 15.8835 37.2885 14.6175 38.6695 13.6967C40.0506 12.7759 41.5467 12.4306 43.1579 12.7759C44.6541 13.1212 45.92 13.9269 46.8407 15.4232C47.7614 16.9194 47.8765 18.0704 47.6464 19.6818ZM40.8562 22.7895C42.0071 23.0197 43.1579 22.7895 44.1937 22.0989C45.2295 21.4083 45.92 20.4875 46.1502 19.3365C46.3804 18.1855 46.1502 17.0345 45.4597 15.9986C44.7692 14.9628 43.8485 14.2722 42.6976 14.042C41.5467 13.8118 40.3958 14.042 39.3601 14.7326C38.3243 15.4232 37.6337 16.3439 37.4036 17.4949C37.1734 18.6459 37.4036 19.7969 38.0941 20.8328C38.6695 21.9838 39.7053 22.5593 40.8562 22.7895Z" fill="white"></path><path d="M65.6 12.3152C64.9095 13.6964 63.7586 14.7322 62.1474 15.1926C60.5361 15.7681 59.04 15.653 57.6589 14.9624C56.2779 14.2718 55.2421 13.1209 54.7817 11.5095C54.3214 9.89808 54.3214 8.4018 55.127 7.02061C55.8175 5.63942 56.9684 4.60353 58.5796 4.14313C60.1909 3.56764 61.687 3.68274 63.0681 4.37333C64.4491 5.06393 65.4849 6.21492 65.9452 7.8263C66.4056 9.43769 66.2905 10.934 65.6 12.3152ZM58.2344 13.5813C59.2702 14.1567 60.421 14.1567 61.687 13.8115C62.953 13.4662 63.7586 12.6605 64.334 11.6246C64.9095 10.5887 64.9095 9.43769 64.5642 8.1716C64.2189 6.90551 63.4133 6.09982 62.3775 5.52432C61.3417 4.94883 60.1909 4.94883 58.9249 5.29412C57.6589 5.63942 56.8533 6.44512 56.2779 7.48101C55.7024 8.5169 55.7024 9.66789 56.0477 10.934C56.393 12.2001 57.1986 13.1209 58.2344 13.5813Z" fill="white"></path><path d="M82.5175 11.3948L78.1442 6.56064L76.648 6.67574L76.9933 11.8552L75.6123 11.9703L74.8066 0.690594L76.1877 0.575495L76.533 5.29455L78.0291 5.17945L81.3666 0.115099L83.208 0L79.5252 5.75495L84.474 11.2797L82.5175 11.3948Z" fill="white"></path><rect x="98.4316" y="4.98242" width="2.98244" height="2.98247" fill="white"></rect><rect x="145.157" y="136.211" width="2.98244" height="2.98248" fill="white"></rect><rect x="7.95312" y="111.355" width="2.98244" height="2.98247" fill="white"></rect></svg>